<?xml version="1.0" standalone="no"?>
<!DOCTYPE svg PUBLIC "-//W3C//DTD SVG 20010904//EN"
 "http://www.w3.org/TR/2001/REC-SVG-20010904/DTD/svg10.dtd">
<svg version="1.0" xmlns="http://www.w3.org/2000/svg"
 width="1600.000000pt" height="1600.000000pt" viewBox="0 0 1600.000000 1600.000000"
 preserveAspectRatio="xMidYMid meet">
<metadata>
Created by potrace 1.14, written by Peter Selinger 2001-2017
</metadata>
<g transform="translate(0.000000,1600.000000) scale(0.100000,-0.100000)"
fill="#000000" stroke="none">
<path d="M780 15994 c0 -4 91 -279 201 -613 111 -333 225 -678 254 -766 29
-88 223 -673 430 -1300 208 -627 421 -1273 475 -1435 54 -162 252 -761 440
-1330 416 -1259 406 -1227 885 -2675 212 -643 410 -1242 440 -1330 29 -88 141
-425 248 -750 224 -679 907 -2741 1007 -3045 38 -113 236 -711 440 -1330 205
-619 394 -1190 421 -1270 l48 -145 1988 -3 1989 -2 91 277 c50 153 166 508
258 788 91 281 177 542 190 580 13 39 92 279 175 535 135 413 228 698 350
1070 21 63 108 331 195 595 86 264 203 622 260 795 57 173 174 531 260 795 86
264 172 525 190 580 18 55 108 330 200 610 223 682 344 1052 360 1100 8 22 93
283 190 580 169 515 525 1605 585 1785 67 205 209 640 350 1070 239 733 421
1289 510 1558 20 61 33 112 29 112 -5 0 -75 -25 -156 -56 -82 -31 -265 -100
-408 -154 -143 -54 -397 -150 -565 -213 -168 -64 -489 -185 -715 -270 -887
-335 -1116 -422 -1540 -582 -242 -92 -461 -174 -487 -183 l-47 -15 -171 -521
c-95 -287 -291 -883 -436 -1326 -146 -443 -310 -940 -364 -1105 -55 -165 -131
-397 -170 -515 -114 -346 -310 -942 -773 -2350 -125 -377 -259 -785 -299 -907
-40 -123 -75 -223 -78 -223 -3 0 -33 84 -67 188 -157 479 -599 1828 -725 2212
-49 151 -132 403 -183 560 -52 157 -133 404 -180 550 -48 146 -104 317 -125
380 -21 63 -115 351 -210 640 -94 289 -232 710 -306 935 -178 543 -241 734
-439 1340 -92 281 -182 555 -200 610 -19 55 -78 237 -133 405 -166 509 -418
1277 -528 1611 l-105 317 -132 60 c-106 48 -525 239 -767 350 -25 11 -173 79
-330 150 -157 71 -316 144 -355 162 -38 18 -142 65 -230 105 -88 40 -185 84
-215 98 -30 14 -208 95 -395 180 -187 85 -414 189 -505 230 -91 41 -219 99
-285 130 -66 30 -147 67 -180 82 -33 15 -134 61 -225 103 -474 215 -430 196
-430 186z"/>
<path d="M15165 15530 c-27 -10 -167 -60 -310 -110 -143 -50 -336 -119 -430
-152 -177 -63 -386 -136 -690 -243 -365 -127 -1063 -373 -1165 -410 -36 -13
-117 -42 -180 -63 -108 -38 -157 -55 -470 -166 -69 -24 -252 -88 -407 -143
l-281 -98 -86 -260 c-48 -143 -195 -585 -327 -983 -132 -398 -238 -726 -235
-729 3 -3 52 11 108 31 111 40 681 243 788 280 62 22 437 156 870 311 113 41
340 121 505 180 165 58 356 127 425 151 69 25 195 70 280 100 85 31 241 86
345 123 105 38 237 85 295 105 58 20 170 60 250 89 l145 52 32 95 c18 52 138
421 268 820 130 399 259 793 286 875 27 83 49 154 49 158 0 10 -7 8 -65 -13z"/>
</g>
</svg>
